<svg version="1.1" id="Layer_1" xmlns="http://www.w3.org/2000/svg" xmlns:xlink="http://www.w3.org/1999/xlink" x="0px" y="0px"
	 width="100%" viewBox="0 0 400 400" enable-background="new 0 0 400 400" xml:space="preserve">
<path fill="#010101" opacity="1.000000" stroke="none" 
	d="
M263.000000,401.000000 
	C175.333328,401.000000 88.166664,401.000000 1.000000,401.000000 
	C1.000000,267.666656 1.000000,134.333328 1.000000,1.000000 
	C134.333328,1.000000 267.666656,1.000000 401.000000,1.000000 
	C401.000000,134.333328 401.000000,267.666656 401.000000,401.000000 
	C355.166656,401.000000 309.333344,401.000000 263.000000,401.000000 
M119.027466,322.457458 
	C132.485092,331.591705 147.084381,338.290344 162.648346,342.944489 
	C189.677475,351.027100 216.914185,349.796722 244.247192,344.837067 
	C261.480865,341.709930 277.503632,335.486847 292.275726,326.091705 
	C294.166321,324.889282 297.097015,324.244690 295.217896,320.555969 
	C286.560181,303.560547 278.090790,286.469116 269.502747,269.309998 
	C265.842529,271.478668 262.545624,273.775635 258.970764,275.494415 
	C235.913864,286.579834 211.996063,288.462463 186.984161,283.288269 
	C145.782501,274.764832 116.132835,233.031952 123.664177,191.648819 
	C129.999420,156.837982 153.339020,130.900604 193.053406,123.812553 
	C220.409454,118.930161 245.947571,123.905098 269.585907,138.938919 
	C278.509094,121.097427 287.416992,103.286537 296.390594,85.344269 
	C295.289581,84.510689 294.513672,83.917274 293.731628,83.332085 
	C277.546967,71.221115 258.651917,66.193665 239.252090,62.479298 
	C216.721695,58.165539 193.999649,57.578426 171.843597,63.316154 
	C126.254799,75.122231 90.508453,100.331314 68.495316,143.065506 
	C53.641792,171.900757 49.647526,202.306961 56.745571,233.740173 
	C65.240372,271.358826 86.946365,300.247650 119.027466,322.457458 
M292.945953,280.619293 
	C291.774139,278.422638 290.602295,276.225983 289.204865,273.606384 
	C287.257874,291.282501 296.996643,304.701569 313.360626,307.586792 
	C327.764709,310.126434 341.975922,300.501648 345.633911,285.729126 
	C348.049133,275.975494 344.199249,263.111755 337.812195,261.108734 
	C338.172791,262.578125 338.665100,263.775970 338.728943,264.996246 
	C338.919586,268.638062 337.830994,271.806335 333.926056,272.716949 
	C330.169830,273.592865 328.586975,270.835052 327.519318,267.850220 
	C326.903809,266.129517 326.630432,264.282043 325.968658,262.582947 
	C322.282471,253.118607 315.522247,247.922195 308.360321,250.358887 
	C312.783386,256.446869 313.273315,261.189484 309.764160,263.947815 
	C306.032166,266.881287 302.146240,265.279694 296.387054,258.338135 
	C294.413757,264.384277 296.511780,269.028931 300.715393,273.174988 
	C303.272217,275.696808 304.058746,278.738342 301.345581,281.571655 
	C298.776672,284.254303 295.982483,283.663544 292.945953,280.619293 
z"/>
<path fill="#FDFDFD" opacity="1.000000" stroke="none" 
	d="
M118.716652,322.272308 
	C86.946365,300.247650 65.240372,271.358826 56.745571,233.740173 
	C49.647526,202.306961 53.641792,171.900757 68.495316,143.065506 
	C90.508453,100.331314 126.254799,75.122231 171.843597,63.316154 
	C193.999649,57.578426 216.721695,58.165539 239.252090,62.479298 
	C258.651917,66.193665 277.546967,71.221115 293.731628,83.332085 
	C294.513672,83.917274 295.289581,84.510689 296.390594,85.344269 
	C287.416992,103.286537 278.509094,121.097427 269.585907,138.938919 
	C245.947571,123.905098 220.409454,118.930161 193.053406,123.812553 
	C153.339020,130.900604 129.999420,156.837982 123.664177,191.648819 
	C116.132835,233.031952 145.782501,274.764832 186.984161,283.288269 
	C211.996063,288.462463 235.913864,286.579834 258.970764,275.494415 
	C262.545624,273.775635 265.842529,271.478668 269.502747,269.309998 
	C278.090790,286.469116 286.560181,303.560547 295.217896,320.555969 
	C297.097015,324.244690 294.166321,324.889282 292.275726,326.091705 
	C277.503632,335.486847 261.480865,341.709930 244.247192,344.837067 
	C216.914185,349.796722 189.677475,351.027100 162.648346,342.944489 
	C147.084381,338.290344 132.485092,331.591705 118.716652,322.272308 
z"/>
<path fill="#FAFAFA" opacity="1.000000" stroke="none" 
	d="
M293.209106,280.898254 
	C295.982483,283.663544 298.776672,284.254303 301.345581,281.571655 
	C304.058746,278.738342 303.272217,275.696808 300.715393,273.174988 
	C296.511780,269.028931 294.413757,264.384277 296.387054,258.338135 
	C302.146240,265.279694 306.032166,266.881287 309.764160,263.947815 
	C313.273315,261.189484 312.783386,256.446869 308.360321,250.358887 
	C315.522247,247.922195 322.282471,253.118607 325.968658,262.582947 
	C326.630432,264.282043 326.903809,266.129517 327.519318,267.850220 
	C328.586975,270.835052 330.169830,273.592865 333.926056,272.716949 
	C337.830994,271.806335 338.919586,268.638062 338.728943,264.996246 
	C338.665100,263.775970 338.172791,262.578125 337.812195,261.108734 
	C344.199249,263.111755 348.049133,275.975494 345.633911,285.729126 
	C341.975922,300.501648 327.764709,310.126434 313.360626,307.586792 
	C296.996643,304.701569 287.257874,291.282501 289.204865,273.606384 
	C290.602295,276.225983 291.774139,278.422638 293.209106,280.898254 
z"/>
</svg>