<svg version="1.1" xmlns="http://www.w3.org/2000/svg" viewBox="0 0 1085.2373896973243 1340.5040404271397" width="1085.2373896973243" height="1340.5040404271397">
  <!-- svg-source:excalidraw -->
  
  <defs>
    <style>
      @font-face {
        font-family: "Virgil";
        src: url("https://excalidraw.com/Virgil.woff2");
      }
      @font-face {
        font-family: "Cascadia";
        src: url("https://excalidraw.com/Cascadia.woff2");
      }
    </style>
  </defs>
  <rect x="0" y="0" width="1085.2373896973243" height="1340.5040404271397" fill="#ffffff"></rect><g transform="translate(294.3183467694459 142) rotate(0 144.5 25)"><path d="M1.2429125764066935 -1.384355472500062 C92.3891770686992 -1.3476768351076467, 186.3447267420708 -0.004845005315623985, 290.10807599441586 -0.9755967510927439 M-0.18296129083491564 -0.08606989221276044 C106.6974951209033 -1.3550115797134767, 212.7854180223754 -0.30625378946422444, 288.4200044979083 -0.2933390687306285 M288.03074728138745 1.2020198535174131 C287.32717695692554 11.649420590139927, 288.5398562834598 23.989321250468496, 290.989525007084 50.361616952344775 M288.5391607200727 0.8271186286583543 C288.42961418861523 13.120997896417975, 289.41284600133076 28.73359607439488, 288.6903026914224 50.601217650808394 M288.6624945107771 50.57839852215783 C221.6731951105443 51.59310723044336, 151.02478748670313 51.704578613995146, -1.3988235442117452 50.71357415484445 M288.2555228651122 50.220407430880655 C216.6177301684302 49.47067348584763, 142.02440675132587 48.38529423320137, -0.04970359284869432 49.956999200676265 M1.392326818779111 51.007869286462665 C-1.3813844569958746 31.251553590409458, -1.0992356785573065 17.811932153999805, 0.5712316501885653 1.922986252233386 M-0.2812402928248048 50.249825053848326 C-1.0741195571608841 33.89578741416335, -0.032086093444377184 17.719660579226904, -0.6783027434721589 -0.3517301445826888" stroke="#000000" stroke-width="1" fill="none"></path></g><g transform="translate(408.3183467694459 10) rotate(0 42 39.5)"><path d="M21.97131807128831 5.160129930945317 C28.700266509919864 1.2926485210697636, 39.39788671648531 -0.4394039711932294, 47.562746300575746 0.4983431020728659 C55.72760588466618 1.4360901753389612, 65.14498055166354 5.8375942267314445, 70.96047557583094 10.786612370541889 C76.77597059999835 15.735630514352334, 80.90981464918691 22.678004092337485, 82.4557164455802 30.19245196493553 C84.00161824197347 37.70689983753357, 83.25559116930458 48.55888407302386, 80.2358863541906 55.87329960613015 C77.21618153907662 63.187715139236445, 71.11945888004557 70.11158678387103, 64.33748755489626 74.07894516357328 C57.55551622974695 78.04630354327553, 47.70906460232187 80.37252221535604, 39.54405840329474 79.67744988434362 C31.379052204267616 78.98237755333119, 21.637363935106865 74.94591852886488, 15.347450360733522 69.9085111774987 C9.057536786360178 64.87110382613251, 3.9409969501443225 56.683068996505284, 1.8045769570546852 49.453005776146526 C-0.331843036034952 42.22294255578777, -0.1713873868245397 33.69607092095813, 2.528930402195698 26.528131855346167 C5.229248191215936 19.360192789734207, 13.24516206807732 10.716560569865585, 18.00648369117611 6.445371382474768 C22.767805314274902 2.1741821950839517, 27.17820766427594 1.8597008186461692, 31.09686014078845 0.9009967310012712 C35.015512617300956 -0.057707356643626695, 41.2109665445608 0.12388585596412349, 41.51839855025116 0.6931468566053809 M29.76753347992958 0.7871984328381103 C37.24779829126064 -2.115862837685588, 48.04548008948619 -0.21008626431891875, 55.6831127663917 2.1105585588947022 C63.32074544329721 4.431203382108324, 70.79960800828907 8.976592706896707, 75.59332954136266 14.711067372119835 C80.38705107443626 20.445542037342964, 84.13157755378391 28.71638636692985, 84.44544196483328 36.51740655023347 C84.75930637588264 44.31842673353708, 81.91474110666914 54.745308396147635, 77.47651600765886 61.51718847194154 C73.03829090864858 68.28906854773544, 65.48104593114977 74.35649643337578, 57.81609137077159 77.14868700499687 C50.15113681039341 79.94087757661796, 39.26572819738445 80.03677973398923, 31.48678864538978 78.27033190166813 C23.707849093395108 76.50388406934702, 16.468066440581136 72.34266876701432, 11.142454058803562 66.55000001107021 C5.816841677025988 60.757331255126104, 0.5616856270361439 51.076576793350036, -0.46688564527566 43.51431936600348 C-1.495456917587464 35.95206193865692, 0.9119798962583205 27.950649359256108, 4.971026424932738 21.17645544699087 C9.030072953607156 14.402261534725636, 19.69083960947009 5.945231995224701, 23.887393526770847 2.869155892412053 C28.083947444071605 -0.2069202104005945, 29.35554236699646 2.8027207320306218, 30.150349928737285 2.7199988301149887 C30.94515749047811 2.6372769281993556, 28.55841418232761 1.7039885924198779, 28.6562388972158 2.372824480918254" stroke="#000000" stroke-width="1" fill="none"></path></g><g transform="translate(347.8183467694459 154.5) rotate(0 91 12.5)"><text x="91" y="18" font-family="Virgil, Segoe UI Emoji" font-size="20px" fill="#000000" text-anchor="middle" style="white-space: pre;" direction="ltr">User uploads data</text></g><g transform="translate(247.3183467694459 242) rotate(0 200.5 27.5)"><path d="M0.6171150189805149 0.22311960843971962 C123.43538347468352 2.278491649035875, 246.3716405617464 1.3669633168676776, 400.5708727087286 1.0804526342007514 M0.5108520337786137 0.5231369274670182 C151.27443854956263 -1.9081511735003045, 301.4623147444909 -2.0466061570408396, 400.54366348108914 -0.528776349912399 M400.61099760420626 -1.534647362306714 C401.5047625852284 15.509515759069474, 402.1269096089062 29.247387300245467, 401.2806002963335 55.85690431110561 M400.23726101871586 -0.1733655696734786 C400.26558985901073 16.14788148039952, 400.7319082577248 31.280309598892927, 401.9245768105612 55.24722259584814 M400.20188053056273 56.11434199203576 C294.1043313109022 53.59480479999488, 185.76326108275765 55.13398364665969, 0.21952173420230145 55.38394847929582 M401.5212025535186 54.60985609285284 C243.91088118986013 55.39443915034699, 86.07970006901785 55.51622034125714, -0.1961244883433878 55.26000077632547 M0.05270485766232014 55.116184217855334 C-0.1441525285597891 41.33300322247669, -0.8486542170401663 29.429443732835352, -1.8709198366850615 0.8285633753985167 M-0.18109569791704416 55.32956584636122 C0.4137339256238193 40.368098601233214, -0.4792978801298886 23.47739494405687, 0.5160601055249572 0.7373537952080369" stroke="#000000" stroke-width="1" fill="none"></path></g><g transform="translate(260.3183467694459 257) rotate(0 183 12.5)"><text x="183" y="18" font-family="Virgil, Segoe UI Emoji" font-size="20px" fill="#000000" text-anchor="middle" style="white-space: pre;" direction="ltr">UUID based folder name is generate</text></g><g transform="translate(251.3183467694459 344) rotate(0 202 27.5)"><path d="M0.32652497327054514 0.3044583424851678 C130.05227169819867 0.9806484073750569, 262.36277300070014 0.07180417278025886, 404.2001552818771 -0.7463693105912186 M0.02350953250300996 0.3764266527937818 C84.76958889775898 1.677454715828647, 169.05327437417333 1.9054079856359263, 404.5263574631109 -0.3448949742711972 M403.5568831395358 -1.6939714681357145 C402.37212956794536 16.38671177206561, 402.844137855852 32.343785469420254, 402.491035444662 55.77194927819073 M403.1760951811448 -0.7095109606161714 C402.67386405798607 13.494413008447738, 404.0133351299446 26.202448267489675, 403.8314407700673 54.47741191741079 M403.6455158093973 55.66784341715629 C276.92554036537524 53.191849308887306, 149.06228502397545 53.5943615016622, -0.8518583671081446 55.197966122751474 M404.12777427603135 55.53802310940239 C242.92082411772034 55.4815864303002, 82.89294032796516 55.47807655325613, -0.3479763765005696 55.116436341002114 M-0.7575295735150576 56.28995685465634 C-0.3943590136710554 39.3099843938835, -0.12811168157495556 25.26462992932647, 0.985121114179492 0.7813025582581758 M-0.9080228870734572 55.82721807714552 C0.3072945937979966 44.25767066376284, 0.5491761729586869 32.419956708326936, 0.4604135984554887 0.6248110448941588" stroke="#000000" stroke-width="1" fill="none"></path></g><g transform="translate(306.3183467694459 359) rotate(0 147 12.5)"><text x="147" y="18" font-family="Virgil, Segoe UI Emoji" font-size="20px" fill="#000000" text-anchor="middle" style="white-space: pre;" direction="ltr">A temp. folder will be created</text></g><g transform="translate(280.3183467694459 445) rotate(0 183 28)"><path d="M0.555099107257197 -1.0883119878410912 C79.71255807400982 0.5838204139296661, 162.44613798785488 1.1190950650949847, 366.47612048628724 1.040099172222247 M0.029410526594908164 -0.16815633718806616 C103.27818025077366 -2.022874045874957, 205.2309572651208 -1.7390658038201727, 365.7573377797822 0.4740166651847828 M367.64829902537167 1.042253715917468 C364.98489270925523 19.224042792990808, 364.96771554470064 42.98686939142645, 366.85696040280163 54.33560363762081 M365.0391526436433 0.9372613066807389 C366.0873357570544 22.339588992483918, 364.77904745105656 44.13970663342626, 365.6428826963529 55.59063565079123 M364.88898838383426 56.31002486262731 C270.6958455157779 53.94599452653753, 176.80634804095658 55.5840705569036, 0.7940897749935127 55.46772871185538 M366.0562584036152 56.619069706808766 C225.94227651743796 54.471189513968284, 84.82884172452975 53.355538880326506, 0.363350099456067 56.02712284381067 M1.4383262861520052 57.4481588434428 C0.38462996020913126 38.071312159672374, 1.5273763491213321 15.656728583201762, -0.23652292601764202 -1.1981617975980043 M0.5611989116296172 55.63266327325255 C0.6228161155059934 40.22502618450671, 1.2333758472278715 25.064605320431287, 0.8843637024983764 -0.879716700874269" stroke="#000000" stroke-width="1" fill="none"></path></g><g transform="translate(281.3183467694459 460.5) rotate(0 182 12.5)"><text x="182" y="18" font-family="Virgil, Segoe UI Emoji" font-size="20px" fill="#000000" text-anchor="middle" style="white-space: pre;" direction="ltr">User files copied to the temp. folder</text></g><g transform="translate(289.3183467694459 551) rotate(0 175.5 28.5)"><path d="M0.37909454409535076 -0.5783435733214393 C86.35288725517071 0.29299431888094274, 170.49418123961183 1.5978622599561245, 349.7191443709835 0.26477014370293467 M-0.09487339452345445 -0.13284624167011902 C80.87870682145777 2.3284046739766984, 160.72037183399587 2.8337805839883474, 350.3882758467654 -0.35121518861271067 M351.53211681358516 1.8107085693627596 C352.1843839304801 19.68326035188511, 350.1211558597442 43.08393598999828, 351.6535287927836 55.48835645802319 M350.4822548562661 -0.07583317998796701 C350.53750763614664 15.578153479564936, 352.0181625612546 31.817611292377116, 350.6959176296368 56.63990019913763 M350.2611651155115 56.27673725745506 C257.89625772044906 60.02215582045909, 167.53183384142812 58.09849444983078, -0.953574772050403 57.97652715499396 M351.28218157632284 56.376224281003914 C254.34001087335858 58.364844395705326, 157.130611257332 58.78132638654431, 0.2058163792068474 57.60938789373082 M1.7399895619601011 56.03614537604153 C2.256897238427773 34.617704066913575, 2.1419609462562947 18.09030165243894, 0.8820581268519163 1.827841268852353 M-0.7705376809462905 56.37560304161161 C-0.37299775493331255 40.947917378600685, -0.21344306481070818 24.493581286817786, 0.6106837624683976 0.3158981120213866" stroke="#000000" stroke-width="1" fill="none"></path></g><g transform="translate(330.3183467694459 554.5) rotate(0 134.5 25)"><text x="134.5" y="18" font-family="Virgil, Segoe UI Emoji" font-size="20px" fill="#000000" text-anchor="middle" style="white-space: pre;" direction="ltr">Main file is uploaded to S3</text><text x="134.5" y="43" font-family="Virgil, Segoe UI Emoji" font-size="20px" fill="#000000" text-anchor="middle" style="white-space: pre;" direction="ltr">with "main.&lt;ext&gt;" name</text></g><g transform="translate(299.3183467694459 673.8115386962891) rotate(0 158.5 111)"><path d="M159.34600608237088 -1.9403978753834963 C210.28286090832205 35.58048013066873, 262.53596576064825 71.69187831645833, 316.5185155738145 110.26526360027492 M159.36259087082 0.6239253515377641 C194.40676280461253 23.701977149154995, 230.8975187722221 49.15341204008088, 316.48442738410085 112.79425793234259 M317.15617607720196 110.77542261593044 C275.4957449276931 141.7213413172774, 235.5429484876804 171.55050760762765, 160.22625522501767 222.5659668277949 M316.3623325144872 111.152806811966 C271.20879009263587 144.3233809342794, 225.63377007907252 176.01775360593572, 158.61880399938673 221.2878543967381 M160.1491177547723 223.06314061395824 C110.52578624114392 188.439948925199, 65.62872394761068 155.45044622980987, -0.07579935900866985 113.08914129249752 M158.216534874402 221.35492225829512 C94.56160089988259 177.35559943555853, 31.228205364476864 134.6275467719417, 0.13702975865453482 112.56348001305014 M1.1630269158631563 112.47225563041866 C43.17913254844025 81.6505007187929, 86.1713028414175 48.17269320740364, 157.54625074751675 -1.930166618898511 M0.9899867689236999 111.65132271591574 C54.98658738123253 73.48267071333714, 109.50049441210926 35.02240535852499, 159.60291691776365 -0.5974626308307052" stroke="#000000" stroke-width="1" fill="none"></path></g><g transform="translate(399.3183467694459 742.8115386962891) rotate(0 69.5 37.5)"><text x="69.5" y="18" font-family="Virgil, Segoe UI Emoji" font-size="20px" fill="#000000" text-anchor="middle" style="white-space: pre;" direction="ltr">If</text><text x="69.5" y="43" font-family="Virgil, Segoe UI Emoji" font-size="20px" fill="#000000" text-anchor="middle" style="white-space: pre;" direction="ltr">filetype is</text><text x="69.5" y="68" font-family="Virgil, Segoe UI Emoji" font-size="20px" fill="#000000" text-anchor="middle" style="white-space: pre;" direction="ltr">video or image</text></g><g transform="translate(704.318346769446 745.5098080635071) rotate(0 134.5 33)"><path d="M1.1268647943273455 -0.030293824705830218 C105.55297688295914 0.39561451709920326, 209.30411308818336 -0.9818779444962366, 268.7801736985244 1.4886974699023814 M-0.25220999070827516 0.37558652085074934 C63.23676615057636 0.6444595451428425, 124.93894080326695 0.22575761375107883, 268.35800306332953 0.5761739799469426 M270.10331241600215 1.9936328399926424 C267.4691427806579 18.31435833927244, 270.4264835575782 32.72766081914306, 268.34893093816936 66.24531637318432 M268.3694628411904 -0.6591928983107209 C268.7238040499948 25.36394738145173, 268.0862643950246 49.98720725197346, 268.19729187432677 66.47606562729925 M269.5960577221504 64.6325971225474 C184.10701964607372 66.24178397948022, 97.38369910240974 68.59317076378932, -0.3774858343154043 64.98422936111923 M268.5361319846914 66.53291783904085 C191.73573231756305 68.37619190828931, 116.010749308618 67.19520628299802, 0.686966918621187 66.52711756331344 M-1.2382533121854067 66.27436749823391 C0.6225090939737856 39.3831533672288, -1.2648271005414427 14.572431255877014, -0.3508844543248415 -1.543494714424014 M0.7204911047592759 66.82611783500761 C-0.3608134893886745 40.08309528157115, -0.45421900434419515 13.01557073686272, -0.688418067060411 -0.6285150730982423" stroke="#000000" stroke-width="1" fill="none"></path></g><g transform="translate(750.818346769446 764.5098080635071) rotate(0 93.5 12.5)"><text x="93.5" y="18" font-family="Virgil, Segoe UI Emoji" font-size="20px" fill="#000000" text-anchor="middle" style="white-space: pre;" direction="ltr">Generate thumbnail</text></g><g transform="translate(713.318346769446 918.5098080635071) rotate(0 138 31)"><path d="M0.16263883692840114 0.22612297085154281 C61.90064169520229 -0.3929848971895035, 126.3269529291941 -1.3671681296450195, 275.02029482822843 0.41521661481800304 M-0.34292505817067515 -0.1356197566584181 C66.21845876037739 0.7136229781663685, 131.8267382339803 1.066744019731155, 276.3443787700309 0.7109969612366248 M275.40882806293666 -0.46057398431003094 C275.3765942234732 17.424802339263262, 274.3432009000517 37.560592557489876, 275.2955255340785 60.31305550225079 M276.2811514670029 -0.5375363016501069 C276.0400539072044 22.62755737826228, 275.928368362952 46.7113131294027, 275.0986522072926 61.04069822188467 M275.7940541937644 62.29879040069235 C205.16128420367073 58.69565859270894, 136.17647732059382 58.42842057844342, -0.6508668568835162 61.524592975791315 M275.3153722743683 61.96419523159386 C194.04547986124237 62.608993637464415, 110.10205730744377 62.7957597914552, -0.1775137912144769 61.36476028598564 M-0.6796935368329287 60.51328353770077 C-0.8117785939015448 39.45640685316175, -1.0919484981335699 15.395671602338552, -1.107544558122754 1.7166348565369844 M0.24766206089407206 62.895341417752206 C-1.3679306394793094 43.98279023356736, 0.20892713597044354 26.872873288579285, -0.8633478647097945 -0.6647774064913392" stroke="#000000" stroke-width="1" fill="none"></path></g><g transform="translate(717.318346769446 924.5098080635071) rotate(0 134 25)"><text x="134" y="18" font-family="Virgil, Segoe UI Emoji" font-size="20px" fill="#000000" text-anchor="middle" style="white-space: pre;" direction="ltr">Upload the thumbnail to S3</text><text x="134" y="43" font-family="Virgil, Segoe UI Emoji" font-size="20px" fill="#000000" text-anchor="middle" style="white-space: pre;" direction="ltr">with "thumb.webp" name.</text></g><g transform="translate(309.3183467694459 1057.509808063507) rotate(0 180 29.5)"><path d="M-0.8365895994741506 0.36509178327216574 C101.10398671597115 -0.5864556213116314, 201.79483515767913 -1.6868786078234579, 359.09074047479027 0.9195466004700845 M0.19456954558242295 0.4351548091399874 C84.41463751087815 1.9074589415836634, 167.1868081782098 2.1657491645768583, 360.47217925364083 0.6016124969794359 M358.5326145160943 -0.16469361074268818 C357.8926158074569 22.72455173665658, 358.9757804397773 42.28077210541815, 359.7923012841493 57.17528717033565 M360.89771511312574 -0.39377430733293295 C359.749261652017 15.943091916758569, 358.8302555725817 30.19727934598923, 359.2942918455228 59.761675232090056 M360.4270349049106 60.2091669398333 C221.28868880606882 59.8760633848609, 85.49170641722993 60.93512140377357, -1.2216388746228999 58.32905907799222 M360.47278159799555 59.54622084217801 C273.52123113095587 60.22131449300781, 186.53133174009764 59.40896692648456, 0.5225033834045621 59.51258432162436 M0.19422380812466145 58.37744198553264 C0.4223204187024385 36.96581916501745, -1.7252163955103605 15.10239695180207, -0.6014750134199858 -1.8003727961331606 M-0.9105608845129609 59.315543674863875 C-0.9418813245091587 47.57061636960134, -1.1217268662247806 33.84243653900921, -0.33361191395670176 0.21930139604955912" stroke="#000000" stroke-width="1" fill="none"></path></g><g transform="translate(360.3183467694459 1075.509808063507) rotate(0 123 12.5)"><text x="123" y="18" font-family="Virgil, Segoe UI Emoji" font-size="20px" fill="#000000" text-anchor="middle" style="white-space: pre;" direction="ltr">Remove the temp. folder </text></g><g><g transform="translate(454.3183467694459 101.23038053512573) rotate(0 0.6165043784037607 15.783283575689424)"><path d="M1.1780634541064499 0.7009931724518537 C1.305959361667434 5.964347048724692, 0.8864658573021491 26.593397832040985, 1.0414274234324694 31.543156508728863 M0.337408038172871 0.023410642649978497 C0.2869280083912116 4.931893052166949, -0.14925843656683957 24.476008482084918, 0.11513135710731148 29.705738927032797" stroke="#000000" stroke-width="1" fill="none"></path></g><g transform="translate(454.3183467694459 101.23038053512573) rotate(0 0.6165043784037607 15.783283575689424)"><path d="M-4.428892758157163 15.240389353254455 C-2.877896405219637 21.252286852570744, -2.5963819366791805 24.828234541827303, 1.4520273877423047 30.864694639051297 M-5.910868100502293 15.949772865823428 C-3.641391663160861 20.4046509373812, -2.634991753864498 24.70184168813126, -0.506573316668077 29.051018646220335" stroke="#000000" stroke-width="1" fill="none"></path></g><g transform="translate(454.3183467694459 101.23038053512573) rotate(0 0.6165043784037607 15.783283575689424)"><path d="M6.178713270039218 15.134006975280895 C4.305142091547538 21.284385654726986, 1.1621218004142446 24.89467758246854, 1.4520273877423047 30.864694639051297 M4.6967379276940875 15.843390487849868 C3.6698303848408473 20.27331598210438, 1.379853863185836 24.60356568720177, -0.506573316668077 29.051018646220335" stroke="#000000" stroke-width="1" fill="none"></path></g></g><g><g transform="translate(450.3183467694459 200.23038053512573) rotate(0 0.5688377004116774 16.49698142535985)"><path d="M-0.6988471705466509 0.34823054261505604 C-0.26116480814913906 5.51354583290716, 1.5021448812137046 26.635561066741747, 1.8365225713700055 31.981042601540686 M1.135119335576892 -0.5145523678511381 C1.469563649420937 4.766921198045214, 0.9621520748982827 28.372807415003578, 0.8026514577120543 33.50851521857083" stroke="#000000" stroke-width="1" fill="none"></path></g><g transform="translate(450.3183467694459 200.23038053512573) rotate(0 0.5688377004116774 16.49698142535985)"><path d="M-3.8546036375414916 18.099322892178595 C-3.0202320287060025 20.98002737990856, -1.2326233449726245 25.291350632081652, 0.473941764132348 34.06399898677601 M-4.176679100618048 18.27135644030492 C-2.7151150929962005 23.444721159991044, -0.9919511866794468 27.291199812568674, 1.34358295641189 33.162499141915546" stroke="#000000" stroke-width="1" fill="none"></path></g><g transform="translate(450.3183467694459 200.23038053512573) rotate(0 0.5688377004116774 16.49698142535985)"><path d="M7.1082824878818505 18.36063503855844 C5.372966247281642 21.11629475365168, 4.593041057698194 25.36641808276952, 0.473941764132348 34.06399898677601 M6.786207024805294 18.532668586684764 C4.999591550793118 23.630875480071808, 3.475488465975076 27.399952041848362, 1.34358295641189 33.162499141915546" stroke="#000000" stroke-width="1" fill="none"></path></g></g><g><g transform="translate(447.3183467694459 303.23038053512573) rotate(0 0.19461054168641567 17.828524663969887)"><path d="M-0.5166763622313738 0.3153187293559312 C-0.5374955613166094 6.5517596859484915, -0.09103093929588787 30.245529248192902, -0.04961525984108439 36.22179221101105 M1.4129298182576897 -0.5647428830713035 C1.2231592508405449 5.3901973239332435, -0.5924410513788461 27.8580088917166, -1.0237087348848581 34.21565837301314" stroke="#000000" stroke-width="1" fill="none"></path></g><g transform="translate(447.3183467694459 303.23038053512573) rotate(0 0.19461054168641567 17.828524663969887)"><path d="M-5.4410800032725755 16.818288761822664 C-4.256353305674017 21.817079702116022, -2.8319051384414493 29.155819405827646, -1.5735872399434447 33.830340689979494 M-6.235921790212226 16.010391397940154 C-4.776422251238598 24.396524176593303, -2.8596196752841 29.948615520373213, -0.7951834329776465 34.96050673602149" stroke="#000000" stroke-width="1" fill="none"></path></g><g transform="translate(447.3183467694459 303.23038053512573) rotate(0 0.19461054168641567 17.828524663969887)"><path d="M6.838019920950047 17.72763243165174 C4.271034949272239 22.395044805416102, 1.9347018540626524 29.45527528160142, -1.5735872399434447 33.830340689979494 M6.043178134010397 16.91973506776923 C2.7785118293412445 24.877903304392582, -0.03222248353719359 30.079891157666378, -0.7951834329776465 34.96050673602149" stroke="#000000" stroke-width="1" fill="none"></path></g></g><g><g transform="translate(457.3183467694459 406.23038053512573) rotate(0 0.3346744571810518 16.31802377812562)"><path d="M-1.0800499755889177 0.1076283473521471 C-1.1034891087561844 5.7772312302142375, -0.7728036005049944 27.89740002341568, -0.6720449645072222 33.51751827187836 M0.5537850578874348 -0.8814707156270742 C0.9700190909951925 4.471541428938508, 2.0278556402772665 26.199611823931335, 1.687085965499282 31.666640615835785" stroke="#000000" stroke-width="1" fill="none"></path></g><g transform="translate(457.3183467694459 406.23038053512573) rotate(0 0.3346744571810518 16.31802377812562)"><path d="M-3.837392302957765 15.248285796981168 C-1.8878263862785931 19.531728052145507, -0.009909872035672507 25.104377246755462, 2.516633449299261 32.55323112462647 M-3.7468620405592317 16.034582036592862 C-3.3888374368502214 19.922910928762665, -2.1900536820371417 23.702664753918736, 1.007278509498574 31.880932005657815" stroke="#000000" stroke-width="1" fill="none"></path></g><g transform="translate(457.3183467694459 406.23038053512573) rotate(0 0.3346744571810518 16.31802377812562)"><path d="M7.449252487018029 15.227070080431886 C6.512556365029871 19.41435302635833, 5.504299256931855 24.99242741531284, 2.516633449299261 32.55323112462647 M7.539782749416562 16.01336632004358 C5.25690616382035 19.882754072039752, 3.81499137197507 23.667471667465954, 1.007278509498574 31.880932005657815" stroke="#000000" stroke-width="1" fill="none"></path></g></g><g><g transform="translate(458.3183467694459 507.23038053512573) rotate(0 0.3643749564353129 15.445571155166249)"><path d="M1.1486752409487961 0.502555839344859 C1.317010754222671 5.659450415894389, 0.6481497266640266 26.402122465893626, 0.6729210156947375 31.170348600670696 M0.2925910131074487 -0.27920629033818845 C0.3037813820379475 4.554425687100738, -0.5126905357899765 24.621813548710197, -0.4468409146927297 29.662206867244095" stroke="#000000" stroke-width="1" fill="none"></path></g><g transform="translate(458.3183467694459 507.23038053512573) rotate(0 0.3643749564353129 15.445571155166249)"><path d="M-4.709910289012992 15.064328380151593 C-2.5175573926610357 19.65647842350592, -3.7619578128523843 23.061951496658626, 0.5988621465419939 30.77578992500491 M-5.003764247172147 14.813560895994115 C-4.6048467835394575 19.367720604007243, -2.3759463344345213 24.10194079738843, -0.3147712540814539 29.25777702155252" stroke="#000000" stroke-width="1" fill="none"></path></g><g transform="translate(458.3183467694459 507.23038053512573) rotate(0 0.3643749564353129 15.445571155166249)"><path d="M5.554896331706976 15.239609337827751 C4.955821512379265 19.882356655681626, 0.9203278434561619 23.24016925984765, 0.5988621465419939 30.77578992500491 M5.261042373547821 14.988841853670273 C2.6299836362856484 19.40477943773315, 1.827727863853303 24.087239867388774, -0.3147712540814539 29.25777702155252" stroke="#000000" stroke-width="1" fill="none"></path></g></g><g><g transform="translate(446.3183467694459 622.4258159399033) rotate(0 1.9966142860893115 23.34448233773935)"><path d="M0.9033085126429794 0.40521378926932816 C1.6764074383924403 8.063458641494314, 3.5375600674500065 38.16201587927838, 4.074821819737553 45.724060551449654 M-0.08159324755892161 -0.42765291670337313 C0.5893613253968457 7.430538231140623, 2.5811602339086432 39.21565100412195, 3.166057811472565 47.11661759218201" stroke="#000000" stroke-width="1" fill="none"></path></g><g transform="translate(446.3183467694459 622.4258159399033) rotate(0 1.9966142860893115 23.34448233773935)"><path d="M-5.5055434411194915 26.131266522322946 C-4.315493998452416 31.48891389284867, -1.8615004835325326 34.660434256828566, 4.005432102251798 48.55300779653713 M-6.529963906462192 26.330983964828008 C-3.2458249239217345 32.4474513457081, -1.2223319741146579 39.22975772838754, 2.478537358697504 47.81684168720618" stroke="#000000" stroke-width="1" fill="none"></path></g><g transform="translate(446.3183467694459 622.4258159399033) rotate(0 1.9966142860893115 23.34448233773935)"><path d="M10.250510438918205 25.06197247271895 C7.451969969699928 30.80877639131229, 5.919382139684208 34.25084849006397, 4.005432102251798 48.55300779653713 M9.226089973575505 25.26168991522401 C7.791796884363602 31.798367235733696, 5.095127116085859 38.90101029319472, 2.478537358697504 47.81684168720618" stroke="#000000" stroke-width="1" fill="none"></path></g></g><g><g transform="translate(629.318346769446 780.4258159399033) rotate(0 34.57195934839547 -0.570912267500546)"><path d="M-0.7567652922123671 0.582579616829753 C11.067106236889957 0.4184942485143742, 58.198831273987885 0.051093336070577394, 69.9006839890033 -0.08316682167351241 M1.0467942000366746 -0.1571700296737253 C12.882676993105559 -0.7255324681537846, 58.11209882387891 -1.3910058742699523, 69.42549761960282 -1.7244041518308222" stroke="#000000" stroke-width="1" fill="none"></path></g><g transform="translate(629.318346769446 780.4258159399033) rotate(0 34.57195934839547 -0.570912267500546)"><path d="M42.433622532528545 10.64317576067142 C48.868566891862855 7.759762579331374, 54.595017931417225 5.1337038219363444, 69.5552402289398 -2.918908846843988 M42.12142523937365 8.567637880720122 C49.23826884186927 6.170903899360094, 58.20046926863233 2.5950770852955394, 69.60994197910651 -2.410726549383253" stroke="#000000" stroke-width="1" fill="none"></path></g><g transform="translate(629.318346769446 780.4258159399033) rotate(0 34.57195934839547 -0.570912267500546)"><path d="M41.99087164865226 -9.873256045095056 C48.674278882872215 -8.381389797605967, 54.49508953738863 -6.634961280355312, 69.5552402289398 -2.918908846843988 M41.678674355497364 -11.948793925046354 C48.81947077451961 -8.124507528044663, 57.91591032541203 -5.479888632879675, 69.60994197910651 -2.410726549383253" stroke="#000000" stroke-width="1" fill="none"></path></g></g><g><g transform="translate(834.318346769446 821.4258159399033) rotate(0 1.7689699737168212 43.90928505218591)"><path d="M1.104949190095067 -0.5976449210196734 C1.4047085264076788 13.818611558402578, 1.0988326011846463 72.61515845072766, 1.0820174593478442 87.2647801797837 M0.22590878555551175 1.7029875501058998 C0.9600204846200845 16.192146429425726, 2.7871008478539685 73.9916934255821, 3.312031161878258 88.41621502539142" stroke="#000000" stroke-width="1" fill="none"></path></g><g transform="translate(834.318346769446 821.4258159399033) rotate(0 1.7689699737168212 43.90928505218591)"><path d="M-8.895851848367165 59.06008092867709 C-6.253163793881598 65.51321746206416, -3.5002536324690903 72.56762102369579, 2.596425532270223 89.41686821592971 M-8.255486034508358 60.15828170715398 C-5.144325813294203 67.27625306764887, -2.935190118091895 73.45006655867977, 2.32175565129146 88.82704349005594" stroke="#000000" stroke-width="1" fill="none"></path></g><g transform="translate(834.318346769446 821.4258159399033) rotate(0 1.7689699737168212 43.90928505218591)"><path d="M11.613525896374277 58.36335507918962 C9.332501931637129 65.17275529216957, 7.157245433420513 72.39457403065738, 2.596425532270223 89.41686821592971 M12.253891710233084 59.46155585766651 C10.724307565779931 66.70758961131014, 8.287904641053125 73.0392170975573, 2.32175565129146 88.82704349005594" stroke="#000000" stroke-width="1" fill="none"></path></g></g><g><g transform="translate(706.318346769446 953.4258159399033) rotate(0 -119.3934786961135 3.13512488504864)"><path d="M0.05871991105377683 0.06882647685706611 C-39.54372704637547 0.9850777428597212, -198.60866351338726 4.770211951062083, -238.27713563255966 5.785880712792277 M-1.369590864982456 -0.9406435681320727 C-41.008843763874225 0.13600736072286967, -199.37933072686818 5.793150013592094, -238.8456773032807 7.210893338229507" stroke="#000000" stroke-width="1" fill="none"></path></g><g transform="translate(706.318346769446 953.4258159399033) rotate(0 -119.3934786961135 3.13512488504864)"><path d="M-210.92371974301028 -2.8429750552402293 C-218.17532940342514 0.4684017370394131, -224.35415464783895 2.150736890573268, -240.5918413401954 6.126667428445071 M-210.85445061766046 -3.1530252940954124 C-219.24521323661696 -1.1519270396567047, -225.57344439922312 2.8002716547370152, -239.76897254133598 6.826457171384245" stroke="#000000" stroke-width="1" fill="none"></path></g><g transform="translate(706.318346769446 953.4258159399033) rotate(0 -119.3934786961135 3.13512488504864)"><path d="M-210.19246384783048 17.665200563317462 C-217.6723650552475 15.956625886870437, -224.03019845897583 12.618651744334937, -240.5918413401954 6.126667428445071 M-210.12319472248066 17.35515032446228 C-218.70402396606463 13.88663971086099, -225.22717536539773 12.372272634288727, -239.76897254133598 6.826457171384245" stroke="#000000" stroke-width="1" fill="none"></path></g></g><g><g transform="translate(455.3183467694459 913.4258159399033) rotate(0 2.0351604152564278 67.8684048414882)"><path d="M1.0792291659861803 1.071071318909526 C1.6224434990435839 23.40347566617032, 3.4267217893153425 113.05415870758395, 3.883635081723332 135.14902986697854 M0.18668574878945954 0.5877798159979286 C0.5945663178898395 23.12406419377153, 2.849631859753281 111.26616881728793, 3.3994980360008777 133.62969579836354" stroke="#000000" stroke-width="1" fill="none"></path></g><g transform="translate(455.3183467694459 913.4258159399033) rotate(0 2.0351604152564278 67.8684048414882)"><path d="M-5.778037796744938 107.1771599334379 C-1.520245089658491 116.80419375167399, -0.1756243822289152 126.66359293865806, 1.5886518134362997 134.27168638361618 M-8.39491943085366 105.68379987130811 C-3.516941033981201 117.29075245994638, 1.6203506728364685 127.44696974819136, 4.28618089562282 132.69801260912791" stroke="#000000" stroke-width="1" fill="none"></path></g><g transform="translate(455.3183467694459 913.4258159399033) rotate(0 2.0351604152564278 67.8684048414882)"><path d="M14.736747956715105 106.66377131311943 C11.77767896805109 116.65603415298625, 5.900498309368692 126.69616106894193, 1.5886518134362997 134.27168638361618 M12.119866322606383 105.17041125098963 C9.276341485478422 116.80632010901029, 6.692338925655871 127.15576508475158, 4.28618089562282 132.69801260912791" stroke="#000000" stroke-width="1" fill="none"></path></g></g><g transform="translate(366.3183467694459 958.4258159399033) rotate(0 12 12.5)"><text x="12" y="18" font-family="Virgil, Segoe UI Emoji" font-size="20px" fill="#000000" text-anchor="middle" style="white-space: pre;" direction="ltr">No</text></g><g transform="translate(628.318346769446 739.4258159399033) rotate(0 15 12.5)"><text x="15" y="18" font-family="Virgil, Segoe UI Emoji" font-size="20px" fill="#000000" text-anchor="middle" style="white-space: pre;" direction="ltr">Yes</text></g><g transform="translate(310.5231039830384 1162.5171356201172) rotate(0 185 29)"><path d="M0.6049833683087117 0.12369162982715291 C110.3065692745254 -2.6253683721708865, 221.12712194653875 -2.8220505162447305, 371.16730958196524 0.6479910448956601 M-0.3080414779206458 -0.3437287074957247 C92.1619560665722 1.4524412790641603, 184.23651342320454 1.7707079049102483, 370.1974544543088 -0.35708005926654296 M369.31680087931454 1.2952453922480345 C368.4527857504971 20.46655779499561, 370.84921332227066 42.90738428160549, 368.2975264657289 57.900027198717 M369.5161581253633 0.4688694113865495 C370.60490998612715 12.897120973840357, 368.84055173384024 23.777361710183325, 369.2360533392057 57.530736797489226 M370.3770162666549 56.855319698556315 C250.79270372228586 57.37028175404651, 133.21352050645763 56.29311293236799, -0.6060201581391803 57.1588664636233 M370.11182770752504 58.16129794026288 C238.4384500514443 58.223791891698944, 106.1427285257404 57.84464089363985, -0.32174602887421283 58.371624212870266 M-1.2010942231863737 59.980752570554614 C0.36718385247513663 42.28046090211719, -2.4104493972845376 21.543408903479573, -0.10583235137164593 -0.6334330607205629 M-0.4401586437597871 57.10210707131773 C-0.6636247133649885 41.62597679048777, 0.39223225956782704 24.79501195307821, 0.7032728707417846 -0.31525642331689596" stroke="#000000" stroke-width="1" fill="none"></path></g><g transform="translate(371.5231039830384 1166.5171356201172) rotate(0 124 25)"><text x="124" y="18" font-family="Virgil, Segoe UI Emoji" font-size="20px" fill="#000000" text-anchor="middle" style="white-space: pre;" direction="ltr">Create new media object</text><text x="124" y="43" font-family="Virgil, Segoe UI Emoji" font-size="20px" fill="#000000" text-anchor="middle" style="white-space: pre;" direction="ltr">in the database</text></g><g><g transform="translate(461.5231039830384 1124.5171356201172) rotate(0 1.4467459239810978 12.362496490255012)"><path d="M1.186353663727641 0.07770179696381097 C1.6853850048035384 4.28623353826503, 2.3744235556572675 21.53278846529623, 2.543441240116954 25.652101685479284 M0.35005060784518705 -0.927108704969287 C0.6905521141737698 2.8977699487159647, 0.6348770534247159 19.383579197799165, 1.3557024275511502 23.87188032157719" stroke="#000000" stroke-width="1" fill="none"></path></g><g transform="translate(461.5231039830384 1124.5171356201172) rotate(0 1.4467459239810978 12.362496490255012)"><path d="M-3.6978597501877903 11.898064429428068 C-1.7091910619308956 14.504137416488517, -1.2622596998683442 19.150851123054952, 1.7476227167338827 25.005527828772806 M-3.2930452452774785 12.259322877906879 C-2.5078450741934293 15.51160313529767, -1.0966603412934148 18.824997942831054, 1.5604332308475317 23.535011310087015" stroke="#000000" stroke-width="1" fill="none"></path></g><g transform="translate(461.5231039830384 1124.5171356201172) rotate(0 1.4467459239810978 12.362496490255012)"><path d="M4.892250364827747 11.286574655849094 C4.6285926862994495 14.138049891493894, 2.8211547388938962 18.94524160825491, 1.747622716733883 25.005527828772806 M5.297064869738059 11.647833104327905 C3.501087019651661 15.153109973263922, 2.333144807261819 18.65010076858912, 1.5604332308475317 23.535011310087015" stroke="#000000" stroke-width="1" fill="none"></path></g></g><g transform="translate(428.8183467694459 37) rotate(0 21.5 12.5)"><text x="21.5" y="18" font-family="Virgil, Segoe UI Emoji" font-size="20px" fill="#000000" text-anchor="middle" style="white-space: pre;" direction="ltr">User</text></g><g><g transform="translate(478.09453255446687 1234.2016123533247) rotate(0 -233.16958759327449 -542.4553769018111)"><path d="M1.7553573679178953 0.8555067647248507 C-0.5472101497729979 29.70639326010966, 1.02302468537486 61.02906816186654, -0.9943263102322817 94.58896449181657 M0.7535619968548417 -0.8088498199358582 C0.8675974846019281 26.104927012696884, 1.359386557353927 54.14747944194828, 0.12074440065771341 96.16724986276995 M0.173498657437702 94.8424169528676 C-91.58599097088099 96.97557514159489, -184.86824782497098 97.24304353316406, -455.228346900583 92.45345333242784 M0.1296427286655525 95.63504946839285 C-134.1848317925015 92.99750824983988, -269.332249621228 91.85000642548547, -453.81863488286024 93.26907283695111 M-453.84325823773236 92.25303499517699 C-460.9471982064983 -230.39184317466578, -465.1063619779882 -553.433601285739, -466.6500685724829 -1180.2046990480803 M-454.2910759049335 93.2464215279158 C-454.50606824023987 -236.95053998949763, -457.31621318693743 -567.6168558125988, -467.3924033872251 -1180.64854146918 M-468.0945325544669 -1180.7059733987521 C-373.6149959173085 -1179.5140442297954, -282.26121331982455 -1177.880167656303, -80.01310379659867 -1180.1994937695656 M-466.9492482752407 -1179.907919440271 C-329.7560952328729 -1181.8279282775045, -192.5302849650012 -1181.2827785134448, -79.42712380219227 -1180.4654152063797" stroke="#000000" stroke-width="1" fill="none"></path></g><g transform="translate(478.09453255446687 1234.2016123533247) rotate(0 -233.16958759327449 -542.4553769018111)"><path d="M-105.91956702912708 -1169.5073463134895 C-98.42614282930165 -1174.5802021296813, -87.8495549640711 -1176.9955127747821, -80.42145011242455 -1181.590736428849 M-106.92136240019013 -1171.1717028981502 C-99.8184639382878 -1173.832532709711, -91.39007367653798 -1175.5206532078037, -79.30637940153456 -1180.0124510578955" stroke="#000000" stroke-width="1" fill="none"></path></g><g transform="translate(478.09453255446687 1234.2016123533247) rotate(0 -233.16958759327449 -542.4553769018111)"><path d="M-105.80463887236738 -1190.028233085377 C-98.50099097940296 -1188.5575812461716, -87.96104609277877 -1184.4301400002935, -80.42145011242455 -1181.590736428849 M-106.80643424343043 -1191.6925896700377 C-99.55203309094259 -1188.5884340840284, -91.15593344744906 -1184.5109342179385, -79.30637940153456 -1180.0124510578955" stroke="#000000" stroke-width="1" fill="none"></path></g></g><g transform="translate(169.5231039830383 105.14713888508948) rotate(0 452.85714285714295 576.4285714285716)"><path d="M-0.6709656305611134 0.618047184497118 C311.6049165714532 -4.146277698438083, 622.8435360476375 -3.0368498887228115, 905.2490771056287 -0.08474848791956902 M905.8211444632284 -0.2213297910988331 C904.8612411326756 390.29828128412913, 905.2749147004475 779.051479242902, 905.0037423149817 1153.4167150464446 M905.6400059462659 1152.8984607678444 C643.5424123930612 1149.5646768186245, 383.010754356214 1148.6453349445019, 0.20234441086649896 1152.224199793914 M-0.12853827998042108 1152.985829922238 C-1.7397841847102564 921.8787388324474, -3.0204808867137354 690.8193703683894, -0.6892074875533581 0.06536831185221673" stroke="#000000" stroke-width="1.5" fill="none" stroke-dasharray="3 6"></path></g><g transform="translate(1002.7516754116095 115.35586406503415) rotate(0 31.314285714285802 17.01863354037272)"><text x="31.314285714285816" y="24.037267080745444" font-family="Virgil, Segoe UI Emoji" font-size="27.22981366459635px" fill="#000000" text-anchor="middle" style="white-space: pre;" direction="ltr">API </text></g></svg>